<?xml version="1.0" encoding="utf-8"?>
<!-- Generator: Adobe Illustrator 24.2.1, SVG Export Plug-In . SVG Version: 6.00 Build 0)  -->
<svg version="1.1" id="Layer_1" xmlns="http://www.w3.org/2000/svg" xmlns:xlink="http://www.w3.org/1999/xlink" x="0px" y="0px"
	 viewBox="0 0 274 203.6" style="enable-background:new 0 0 274 203.6;" xml:space="preserve">
<style type="text/css">
	.st0{opacity:0.4;}
	.st1{fill:#00BFD6;}
	.st2{fill:#FFFFFF;stroke:#000000;stroke-miterlimit:10;}
	.st3{fill:none;stroke:#000000;stroke-linecap:round;stroke-linejoin:round;}
	.st4{fill:#E6E6E6;stroke:#000000;stroke-linecap:round;stroke-linejoin:round;}
	.st5{fill:#FFFFFF;stroke:#000000;stroke-width:1;stroke-miterlimit:10.0005;}
	.st6{fill:#FBB03B;stroke:#000000;stroke-miterlimit:10;}
	.st7{fill:#FFFFFF;stroke:#000000;stroke-linecap:round;stroke-linejoin:round;}
	.st8{fill:#FB3449;stroke:#000000;stroke-miterlimit:10;}
	.st9{fill:none;stroke:#000000;stroke-miterlimit:10;}
</style>
<g class="st0">
	<path class="st1" d="M221.1,166.7c-47.8,45.6-85.4,43.4-133.2-2.2c-45.6-43.5-48-84-2.4-127.6c47.8-45.6,73.7-25,133.5,3.1
		C280.9,69.1,266.7,123.2,221.1,166.7z"/>
</g>
<path class="st2" d="M244.7,148.3h11.7c2,0,3.6-1.6,3.6-3.6c0,0,0,0,0,0V84.2c0-15-12.2-27.2-27.2-27.2c0,0,0,0,0,0H201
	c-2.5,0-4.5,2-4.5,4.5v86.8h12.4c0-9.9,8-17.9,17.9-17.9S244.6,138.4,244.7,148.3"/>
<circle class="st2" cx="226.8" cy="150.1" r="15.1"/>
<path class="st3" d="M216.6,150.5c0,5.2,4.2,9.4,9.4,9.5"/>
<circle class="st4" cx="226.8" cy="150.1" r="4.7"/>
<circle class="st2" cx="128.2" cy="149.8" r="15.1"/>
<path class="st3" d="M138.4,149.4c0-5.2-4.2-9.4-9.4-9.4l0,0"/>
<circle class="st4" cx="128.2" cy="149.8" r="4.7"/>
<circle class="st5" cx="164.3" cy="150.1" r="15.1"/>
<path class="st3" d="M174.5,149.5c-0.1-5.2-4.3-9.4-9.5-9.3c0,0,0,0,0,0"/>
<circle class="st4" cx="164.3" cy="150.1" r="4.7"/>
<circle class="st2" cx="79.2" cy="149.8" r="15.1"/>
<path class="st3" d="M69,150.3c0,5.2,4.2,9.4,9.4,9.4c0,0,0,0,0,0"/>
<circle class="st4" cx="79.2" cy="149.8" r="4.7"/>
<circle class="st2" cx="43.5" cy="150.1" r="15.1"/>
<path class="st3" d="M33.4,150.5c0,5.2,4.2,9.4,9.4,9.5c0,0,0,0,0,0"/>
<circle class="st4" cx="43.5" cy="150.1" r="4.7"/>
<path class="st6" d="M259.6,122.2h-3.9c-2.4,0-4.6,1.5-5.5,3.7l0,0c-1.2,3,0.2,6.5,3.2,7.7c0.7,0.3,1.5,0.4,2.3,0.4h3.9"/>
<path class="st7" d="M110.3,148.3c0-9.9,8-17.9,17.9-17.9c7.2,0,13.7,4.3,16.5,10.9h3.1c3.9-9.1,14.4-13.4,23.5-9.5
	c6.6,2.8,10.9,9.3,10.9,16.5h8.8V44.8c0-3.5-2.8-6.3-6.4-6.3l0,0H20.5c-3.5,0-6.3,2.8-6.4,6.3v99.9c0,2,1.6,3.6,3.6,3.6c0,0,0,0,0,0
	h7.7c0-9.9,8-17.9,17.9-17.9c7.2,0,13.7,4.3,16.5,10.9H63c3.9-9.1,14.4-13.4,23.5-9.5c6.6,2.8,10.9,9.3,10.9,16.5H110.3z"/>
<path class="st4" d="M262.2,150H254c-1.9,0-3.4-1.5-3.4-3.4v0c0-1.9,1.5-3.4,3.4-3.4h8.2c1.9,0,3.4,1.5,3.4,3.4v0
	C265.6,148.5,264.1,150,262.2,150z"/>
<path class="st4" d="M19.8,149.8h-5.3c-1.8,0-3.2-1.4-3.2-3.2l0,0c0-1.8,1.4-3.2,3.2-3.2h5.3c1.8,0,3.2,1.4,3.2,3.2l0,0
	C23,148.4,21.6,149.8,19.8,149.8z"/>
<path class="st4" d="M249.7,99.5h-30.6c-1.2,0-2.2-1-2.2-2.2c0,0,0,0,0,0V66.8c0-1.2,1-2.2,2.2-2.2l0,0h9.4
	c12.9,0,23.4,10.5,23.4,23.4v0v9.4C251.9,98.5,250.9,99.5,249.7,99.5L249.7,99.5L249.7,99.5z"/>
<path class="st4" d="M208.5,99.5h-2.1c-2.2,0-4-1.8-4-4v-27c0-2.2,1.8-4,4-4h2.1c2.2,0,4,1.8,4,4v27
	C212.5,97.7,210.7,99.5,208.5,99.5z"/>
<path class="st8" d="M14.2,139.4h-1.1c-1.2,0-2.3-1-2.3-2.3l0,0c0-1.2,1-2.3,2.3-2.3h1.1l0,0V139.4L14.2,139.4z"/>
<path class="st9" d="M214.7,112.4h-7.8c-1.8,0-3.2-1.4-3.2-3.2v-0.3c0-1.8,1.4-3.2,3.2-3.2h7.8c1.8,0,3.2,1.4,3.2,3.2v0.3
	C217.9,110.9,216.5,112.4,214.7,112.4z"/>
<line class="st3" x1="214.9" y1="109" x2="211.6" y2="109"/>
<rect x="191" y="134" class="st7" width="5.5" height="14.3"/>
<line class="st3" x1="191" y1="114.4" x2="14.2" y2="114.4"/>
<line class="st3" x1="236.1" y1="109" x2="247.7" y2="109"/>
<path class="st2" d="M207.5,49.7h18c4.1,0,7.4,3.3,7.4,7.3c0,0,0,0,0,0l0,0l0,0h-25.4l0,0L207.5,49.7L207.5,49.7z"/>
<line class="st3" x1="212.2" y1="51.8" x2="212.2" y2="54.8"/>
<line class="st3" x1="215.4" y1="51.8" x2="215.4" y2="54.8"/>
<line class="st3" x1="218.6" y1="51.8" x2="218.6" y2="54.8"/>
<line class="st3" x1="221.8" y1="51.8" x2="221.8" y2="54.8"/>
<line class="st3" x1="148.6" y1="114.3" x2="148.6" y2="116.9"/>
<line class="st3" x1="147.3" y1="116.9" x2="150.2" y2="116.9"/>
<line class="st3" x1="143" y1="114.3" x2="143" y2="116.9"/>
<line class="st3" x1="141.7" y1="116.9" x2="144.6" y2="116.9"/>
<line class="st3" x1="64.7" y1="114.3" x2="64.7" y2="116.9"/>
<line class="st3" x1="63.3" y1="116.9" x2="66.2" y2="116.9"/>
<line class="st3" x1="59.1" y1="114.3" x2="59.1" y2="116.9"/>
<line class="st3" x1="57.8" y1="116.9" x2="60.7" y2="116.9"/>
</svg>
