<?xml version="1.0" encoding="utf-8"?>
<!-- Generator: Adobe Illustrator 24.2.1, SVG Export Plug-In . SVG Version: 6.00 Build 0)  -->
<svg version="1.1" id="Layer_1" xmlns="http://www.w3.org/2000/svg" xmlns:xlink="http://www.w3.org/1999/xlink" x="0px" y="0px"
	 viewBox="0 0 274 203.6" style="enable-background:new 0 0 274 203.6;" xml:space="preserve">
<style type="text/css">
	.st0{opacity:0.4;}
	.st1{fill:#00BFD6;}
	.st2{fill:#FFFFFF;stroke:#000000;stroke-linecap:round;stroke-linejoin:round;}
	.st3{fill:none;stroke:#000000;stroke-linecap:round;stroke-linejoin:round;}
	.st4{fill:#FFFFFF;stroke:#000000;stroke-width:1.0042;stroke-miterlimit:10.0424;}
	.st5{fill:#FFFFFF;stroke:#000000;stroke-miterlimit:10;}
	.st6{fill:#E6E6E6;stroke:#000000;stroke-linecap:round;stroke-linejoin:round;}
</style>
<g class="st0">
	<path class="st1" d="M204.1,166.7c-47.8,45.6-85.4,43.4-133.2-2.2c-45.6-43.5-48-84-2.4-127.6c47.8-45.6,73.7-25,133.5,3.1
		C263.9,69.1,249.7,123.2,204.1,166.7z"/>
</g>
<path class="st2" d="M124.7,97.7l-9.3-35.1c-0.7-2.7,0.9-5.4,3.6-6.1c0,0,0,0,0,0l30.2-8c2.7-0.7,5.4,0.9,6.1,3.6c0,0,0,0,0,0
	l9.3,35.1"/>
<path class="st2" d="M124.6,97.5l57-15c2.7-0.7,5.4,0.9,6.1,3.6l15,57l0,0l-61.8,16.3l0,0L124.6,97.5L124.6,97.5z"/>
<path class="st3" d="M142.4,103.8l31.6-8.3c2.7-0.7,5.4,0.9,6.1,3.6l8.3,31.6c0.7,2.7-0.9,5.4-3.6,6.1l-31.6,8.3
	c-2.7,0.7-5.4-0.9-6.1-3.6l-8.3-31.6C138.2,107.2,139.7,104.5,142.4,103.8z"/>
<path class="st4" d="M104.5,39L104.5,39c2.8-0.7,5.7,0.9,6.4,3.7l31.1,116c0.7,2.8-0.9,5.7-3.7,6.4l0,0c-2.8,0.7-5.7-0.9-6.4-3.7
	l-31.1-116C100.1,42.6,101.7,39.7,104.5,39z"/>
<path class="st5" d="M228.6,141.4L228.6,141.4c0.8,2.9-0.9,5.8-3.8,6.5l-83.2,22c-2.9,0.8-5.8-0.9-6.5-3.8l0,0
	c-0.8-2.9,0.9-5.8,3.8-6.5l83.2-22C224.9,136.9,227.8,138.6,228.6,141.4z"/>
<path class="st5" d="M106.2,37.4L106.2,37.4c0.7,2.8-0.9,5.6-3.7,6.4l-25.9,6.8c-2.8,0.7-5.6-0.9-6.4-3.7l0,0
	c-0.7-2.8,0.9-5.6,3.7-6.4l25.9-6.8C102.6,33,105.5,34.6,106.2,37.4z"/>
<circle class="st5" cx="103.8" cy="38.3" r="8.6"/>
<circle class="st2" cx="137.1" cy="165.1" r="16.6"/>
<circle class="st6" cx="137.1" cy="165.1" r="7"/>
<path class="st6" d="M127.3,54.3l13.5-3.6l0,0l4.7,17.7c0.3,1.1-0.4,2.2-1.4,2.4l-9.7,2.6c-1.1,0.3-2.2-0.4-2.4-1.4L127.3,54.3
	L127.3,54.3z"/>
</svg>
