<?xml version="1.0" encoding="utf-8"?>
<!-- Generator: Adobe Illustrator 24.2.1, SVG Export Plug-In . SVG Version: 6.00 Build 0)  -->
<svg version="1.1" id="Layer_1" xmlns="http://www.w3.org/2000/svg" xmlns:xlink="http://www.w3.org/1999/xlink" x="0px" y="0px"
	 viewBox="0 0 274 203.6" style="enable-background:new 0 0 274 203.6;" xml:space="preserve">
<style type="text/css">
	.st0{opacity:0.4;fill:#00BFD6;enable-background:new    ;}
	.st1{fill:#FFFFFF;stroke:#000000;stroke-linecap:round;stroke-linejoin:round;}
	.st2{fill:#CAC8C8;stroke:#000000;stroke-linecap:round;stroke-linejoin:round;}
	.st3{fill:none;stroke:#000000;stroke-linecap:round;stroke-linejoin:round;}
	.st4{fill:#F2F2F2;stroke:#000000;stroke-linecap:round;stroke-linejoin:round;}
	.st5{fill:#CCCCCC;stroke:#000000;}
</style>
<g>
	<path class="st0" d="M168.6,157.4c-47.8,45.6-85.4,43.4-133.2-2.2c-45.6-43.5-48-84-2.4-127.6c47.8-45.6,73.7-25,133.5,3.1
		C228.4,59.9,214.2,113.9,168.6,157.4z"/>
	<path class="st1" d="M108.2,156l52.9-31V64.4l-52.9-30.5"/>
	<path class="st2" d="M108.2,33.9L55.3,64.4v58.7c0,1.5,0.8,2.8,2.1,3.6l50.8,29.3"/>
	<path class="st3" d="M159.7,65.2l-51.5,29.7L56.7,65.2 M108.2,94.9V156 M108.2,92.8v14.4"/>
	<path class="st2" d="M50.5,61.2v13.5l57.7,33.1V81.9L50.5,61.2z"/>
	<path class="st1" d="M165.9,61.2v13.5l-57.7,33.1V87.4L159,59.9L165.9,61.2z"/>
	<path class="st4" d="M165.9,60.9l-57.7,33.1L50.5,60.9L106.2,29c1.3-0.7,2.8-0.7,4.1,0L165.9,60.9z"/>
	<path class="st1" d="M76.5,139.6l39.8,2.6c4.1,0,7.5-3.3,7.5-7.5c0-4.1-3.3-7.5-7.5-7.5c0,0,0,0,0,0h-0.8c-11.7,0-23.1-3.5-32.9-10
		c-5.5-3.7-12-5.6-18.6-5.6H47.5l0.7,35.8l44,14.7c4.7,1.6,9.9,1.4,14.5-0.5l61.3-25.4c3.7-1.5,5.4-5.7,3.9-9.4
		c0-0.1-0.1-0.2-0.1-0.3c-1.6-3.5-5.7-5.1-9.2-3.7L122.5,139"/>
	<path class="st4" d="M39.7,107h3c3.1,0,5.5,2.5,5.5,5.5v33.5c0,3.1-2.5,5.5-5.5,5.5h-3c-3.1,0-5.5-2.5-5.5-5.5v-33.5
		C34.1,109.5,36.6,107,39.7,107z"/>
	<circle class="st5" cx="41.5" cy="142.6" r="2.5"/>
</g>
</svg>
