<?xml version="1.0" encoding="utf-8"?>
<!-- Generator: Adobe Illustrator 24.2.1, SVG Export Plug-In . SVG Version: 6.00 Build 0)  -->
<svg version="1.1" id="Layer_1" xmlns="http://www.w3.org/2000/svg" xmlns:xlink="http://www.w3.org/1999/xlink" x="0px" y="0px"
	 viewBox="0 0 274 203.6" style="enable-background:new 0 0 274 203.6;" xml:space="preserve">
<style type="text/css">
	.st0{opacity:0.4;}
	.st1{fill:#00BFD6;}
	.st2{fill:#FFFFFF;}
	.st3{fill:#FFFFFF;stroke:#000000;stroke-linecap:round;stroke-linejoin:round;}
	.st4{fill:#F2F2F2;stroke:#000000;stroke-linecap:round;stroke-linejoin:round;}
	.st5{fill:none;stroke:#000000;stroke-linecap:round;stroke-linejoin:round;}
	.st6{fill:none;stroke:#FF637D;stroke-linecap:round;stroke-linejoin:round;}
</style>
<g class="st0">
	<path class="st1" d="M204.6,166.7c-47.8,45.6-85.4,43.4-133.2-2.2c-45.6-43.5-48-84-2.4-127.6c47.8-45.6,73.7-25,133.5,3.1
		C264.4,69.1,250.2,123.2,204.6,166.7z"/>
</g>
<path class="st2" d="M97.5,47.6h91.4l0,0v118.7l0,0h-81.9c-5.3,0-9.6-4.3-9.6-9.6C97.5,156.8,97.5,47.6,97.5,47.6z"/>
<path class="st3" d="M89.5,40.4h92.2c8.3,0,15,6.7,15,15v110.9"/>
<path class="st4" d="M97.5,156.5V65l-0.2-14.8c0-5.4-4.4-9.8-9.8-9.8s-9.8,4.4-9.8,9.8h19.7"/>
<path class="st4" d="M107.3,166.3c5.4,0,9.8-4.4,9.8-9.8l0,0h91.4c0,5.4-4.4,9.8-9.8,9.8l0,0H107.3"/>
<path class="st5" d="M97.5,156.5c0,5.4,4.4,9.8,9.8,9.8l0,0"/>
<rect x="168.4" y="84.6" class="st3" width="13" height="13"/>
<rect x="166.4" y="106.5" class="st3" width="13" height="13"/>
<rect x="166.4" y="128.4" class="st3" width="13" height="13"/>
<line class="st5" x1="161.7" y1="91.1" x2="121.2" y2="91.1"/>
<line class="st5" x1="161.7" y1="113.1" x2="121.2" y2="113.1"/>
<line class="st5" x1="161.7" y1="135" x2="121.2" y2="135"/>
<line class="st6" x1="171.1" y1="87.3" x2="178.8" y2="94.9"/>
<line class="st6" x1="178.8" y1="87.3" x2="171.1" y2="94.9"/>
<line class="st6" x1="169.1" y1="109.1" x2="176.8" y2="116.8"/>
<line class="st6" x1="176.8" y1="109.1" x2="169.1" y2="116.8"/>
<line class="st6" x1="169.1" y1="131" x2="176.8" y2="138.7"/>
<line class="st6" x1="176.8" y1="131" x2="169.1" y2="138.7"/>
</svg>
